<svg width="300" height="300" viewBox="0 0 300 300" fill="none" xmlns="http://www.w3.org/2000/svg"><g clip-path="url(#a)"><rect width="300" height="300" rx="15" fill="#3C50E0"/><g clip-path="url(#b)"><path d="m77.143 81.277-30.9 30.939 47.652 47.796L46 208.051l30.803 30.952 47.992-48.052 47.733 47.709 30.9-30.939z" fill="#fff"/><path d="m155.779 160.013-30.983 30.938 47.732 47.71 30.9-30.939z" fill="#E5E1EE"/><path d="m155.779 160.013-30.983 30.938 11.927 11.861z" fill="#000" fill-opacity=".2"/><path d="M198.007 117.895 246 69.842 215.087 39l-47.979 47.956-47.736-47.713-30.9 30.939 126.285 126.444 30.9-30.939z" fill="#fff"/><path d="m136.125 117.896 30.983-30.939-47.736-47.713-30.9 30.94z" fill="#E5E1EE"/><path d="m136.124 117.895 30.983-30.939-11.93-11.864z" fill="#000" fill-opacity=".2"/></g></g><defs><clipPath id="a"><path d="M0 28C0 12.536 12.536 0 28 0h244c15.464 0 28 12.536 28 28v244c0 15.464-12.536 28-28 28H28c-15.464 0-28-12.536-28-28z" fill="#fff"/></clipPath><clipPath id="b"><rect x="46" y="39" width="200" height="200" rx="15" fill="#fff"/></clipPath></defs></svg>