<svg width="151" height="32" viewBox="0 0 151 32" fill="none" xmlns="http://www.w3.org/2000/svg"><path d="M0 8.421C0 3.771 3.77 0 8.421 0H23.58C28.229 0 32 3.77 32 8.421V23.58c0 4.649-3.77 8.42-8.421 8.42H8.42A8.42 8.42 0 0 1 0 23.579z" fill="#3C50E0"/><g filter="url(#a)"><path d="M8.42 8.42a1.684 1.684 0 1 1 3.369 0v15.16a1.684 1.684 0 1 1-3.368 0z" fill="#fff"/></g><g opacity=".9" filter="url(#b)"><path d="M14.737 15.158a1.684 1.684 0 1 1 3.368 0v8.42a1.684 1.684 0 0 1-3.368 0z" fill="#fff"/></g><g opacity=".7" filter="url(#c)"><path d="M21.052 10.947a1.685 1.685 0 0 1 3.369 0v12.631a1.684 1.684 0 0 1-3.369 0z" fill="#fff"/></g><path d="m41.902 26.824 1.73-4.957h8.009l1.731 4.957h3.96L49.588 5.382h-3.843L38 26.824zm5.28-15.048a15 15 0 0 0 .47-1.642c.058.44.263 1.085.44 1.642l2.464 6.923h-5.808zm17.606 15.43c2.2 0 4.078-.968 4.958-2.64l.234 2.258h3.286V5h-3.55v9.182c-.909-1.438-2.698-2.288-4.722-2.288-4.371 0-7.011 3.226-7.011 7.744 0 4.488 2.611 7.568 6.805 7.568m.792-3.286c-2.493 0-4.018-1.818-4.018-4.4 0-2.581 1.525-4.43 4.018-4.43 2.494 0 4.107 1.82 4.107 4.43s-1.613 4.4-4.107 4.4m14.994 2.904v-8.213c0-2.347 1.378-3.461 3.08-3.461 1.701 0 2.786 1.085 2.786 3.109v8.565h3.579v-8.213c0-2.376 1.32-3.49 3.051-3.49 1.701 0 2.816 1.085 2.816 3.167v8.536h3.549V17.35c0-3.344-1.936-5.456-5.456-5.456-2.2 0-3.901 1.085-4.635 2.757-.762-1.672-2.288-2.757-4.488-2.757-2.082 0-3.549.938-4.282 2.14l-.294-1.7h-3.285v14.49zM104.737 9.43c1.174 0 2.142-.968 2.142-2.171a2.14 2.14 0 0 0-1.321-1.98 2.1 2.1 0 0 0-.821-.161c-1.232 0-2.2.938-2.2 2.14 0 1.204.968 2.172 2.2 2.172m-1.789 17.394h3.579v-14.49h-3.579zm10.855 0v-7.802c0-2.347 1.349-3.872 3.549-3.872 1.848 0 3.051 1.173 3.051 3.608v8.066h3.578v-8.917c0-3.755-1.877-6.013-5.514-6.013-1.966 0-3.726.85-4.635 2.317l-.293-1.877h-3.315v14.49zM145.84 27l-6.33-9.66-8.19-11.94h4.56l5.94 9.12L150.4 27zm-5.76-12.45 6.18-9.15h4.14l-8.88 12.36zm1.02 3.33L134.92 27h-4.14l8.85-12.33z" fill="#fff"/><defs><filter id="a" x="7.421" y="6.237" width="5.368" height="20.527" filterUnits="userSpaceOnUse" color-interpolation-filters="sRGB"><feFlood flood-opacity="0" result="BackgroundImageFix"/><feColorMatrix in="SourceAlpha" values="0 0 0 0 0 0 0 0 0 0 0 0 0 0 0 0 0 0 127 0" result="hardAlpha"/><feOffset dy=".5"/><feGaussianBlur stdDeviation=".5"/><feComposite in2="hardAlpha" operator="out"/><feColorMatrix values="0 0 0 0 0 0 0 0 0 0 0 0 0 0 0 0 0 0 0.12 0"/><feBlend in2="BackgroundImageFix" result="effect1_dropShadow_2_3"/><feBlend in="SourceGraphic" in2="effect1_dropShadow_2_3" result="shape"/></filter><filter id="b" x="13.737" y="12.974" width="5.368" height="13.788" filterUnits="userSpaceOnUse" color-interpolation-filters="sRGB"><feFlood flood-opacity="0" result="BackgroundImageFix"/><feColorMatrix in="SourceAlpha" values="0 0 0 0 0 0 0 0 0 0 0 0 0 0 0 0 0 0 127 0" result="hardAlpha"/><feOffset dy=".5"/><feGaussianBlur stdDeviation=".5"/><feComposite in2="hardAlpha" operator="out"/><feColorMatrix values="0 0 0 0 0 0 0 0 0 0 0 0 0 0 0 0 0 0 0.12 0"/><feBlend in2="BackgroundImageFix" result="effect1_dropShadow_2_3"/><feBlend in="SourceGraphic" in2="effect1_dropShadow_2_3" result="shape"/></filter><filter id="c" x="20.052" y="8.763" width="5.369" height="18" filterUnits="userSpaceOnUse" color-interpolation-filters="sRGB"><feFlood flood-opacity="0" result="BackgroundImageFix"/><feColorMatrix in="SourceAlpha" values="0 0 0 0 0 0 0 0 0 0 0 0 0 0 0 0 0 0 127 0" result="hardAlpha"/><feOffset dy=".5"/><feGaussianBlur stdDeviation=".5"/><feComposite in2="hardAlpha" operator="out"/><feColorMatrix values="0 0 0 0 0 0 0 0 0 0 0 0 0 0 0 0 0 0 0.12 0"/><feBlend in2="BackgroundImageFix" result="effect1_dropShadow_2_3"/><feBlend in="SourceGraphic" in2="effect1_dropShadow_2_3" result="shape"/></filter></defs></svg>